<svg xmlns="http://www.w3.org/2000/svg" viewBox="0 0 681.12 137.86">
    <title>DMEA logo</title>
    <path d="M350.67,35V1.83h9.9q5.39,0,8.18,2.2a7.77,7.77,0,0,1,2.79,6.49A7.26,7.26,0,0,1,370.12,15a7.75,7.75,0,0,1-3.88,2.73A8.11,8.11,0,0,1,371,20.58a7.89,7.89,0,0,1,1.78,5.11,8.6,8.6,0,0,1-2.87,6.87Q367,35,361.88,35Zm2.83-18.31h7.74a8.78,8.78,0,0,0,5.49-1.66,5.62,5.62,0,0,0,1.95-4.63,5.52,5.52,0,0,0-2-4.72q-2-1.51-6.09-1.52H353.5V16.72Zm0,2.37V32.66H362a8.55,8.55,0,0,0,5.77-1.83,6.36,6.36,0,0,0,2.13-5.09,6.13,6.13,0,0,0-2-4.86,8.25,8.25,0,0,0-5.63-1.79Z"
          style="fill:#872657"/>
    <path d="M388.58,35.49a11,11,0,0,1-5.75-1.55,10.64,10.64,0,0,1-4-4.32,13.4,13.4,0,0,1-1.43-6.21v-1A14.4,14.4,0,0,1,378.79,16a11,11,0,0,1,3.88-4.48,9.61,9.61,0,0,1,5.39-1.63,9,9,0,0,1,7.2,3.07c1.77,2,2.66,4.84,2.66,8.38v1.53H380.14v.53a10.26,10.26,0,0,0,2.43,7,7.77,7.77,0,0,0,6.12,2.79,9.09,9.09,0,0,0,3.9-.8,8.57,8.57,0,0,0,3.07-2.55l1.73,1.3a10.08,10.08,0,0,1-8.81,4.34Zm-.5-23.27a6.91,6.91,0,0,0-5.24,2.26,10.42,10.42,0,0,0-2.59,6.07H395.2v-.3a9,9,0,0,0-2.05-5.79,6.42,6.42,0,0,0-5.07-2.24Z"
          style="fill:#872657"/>
    <path d="M414.82,12.68a10.1,10.1,0,0,0-1.87-.16A6.77,6.77,0,0,0,408.59,14,7.82,7.82,0,0,0,406,18.09V35H403.3V10.35H406l.05,3.92a7.34,7.34,0,0,1,7-4.38,4.54,4.54,0,0,1,1.82.3l-.08,2.49Z"
          style="fill:#872657"/>
    <polygon points="422.26 35.03 419.49 35.03 419.49 0 422.26 0 422.26 35.03" style="fill:#872657"/>
    <path d="M429.58,3.23a1.78,1.78,0,0,1,1.89-1.83,1.86,1.86,0,0,1,1.39.53,1.79,1.79,0,0,1,.52,1.3,1.75,1.75,0,0,1-.52,1.29,1.87,1.87,0,0,1-1.39.52,1.83,1.83,0,0,1-1.38-.52,1.78,1.78,0,0,1-.51-1.29ZM432.83,35h-2.76V10.35h2.76V35Z"
          style="fill:#872657"/>
    <path d="M442.94,10.35l.09,4.22a9.8,9.8,0,0,1,3.5-3.48,9.16,9.16,0,0,1,4.63-1.2c2.67,0,4.66.75,6,2.23s2,3.73,2,6.71V35h-2.74V18.81A7.53,7.53,0,0,0,455,13.88a5.58,5.58,0,0,0-4.46-1.62A7.06,7.06,0,0,0,446,13.84a9.3,9.3,0,0,0-2.91,4.28V35h-2.74V10.34h2.63Z"
          style="fill:#872657"/>
    <path d="M363.76,125.24a7.43,7.43,0,0,1-2.35,5,7.76,7.76,0,0,1-5.3,1.74,7.3,7.3,0,0,1-4.08-1.16,7.5,7.5,0,0,1-2.74-3.27,11.58,11.58,0,0,1-1-4.84V120a11.76,11.76,0,0,1,1-4.91,7.45,7.45,0,0,1,2.79-3.3,7.64,7.64,0,0,1,4.18-1.16,7.44,7.44,0,0,1,5.27,1.8,7.54,7.54,0,0,1,2.25,5H362c-.44-3.53-2.35-5.29-5.75-5.29a5.45,5.45,0,0,0-4.5,2.11,9.14,9.14,0,0,0-1.68,5.84v2.54a9.23,9.23,0,0,0,1.63,5.74,5.25,5.25,0,0,0,4.41,2.14,5.83,5.83,0,0,0,4.15-1.32,6.29,6.29,0,0,0,1.72-4h1.78Z"
          style="fill:#872657"/>
    <path d="M366.68,123.77a9.18,9.18,0,0,1,.86-4,6.49,6.49,0,0,1,6-3.76,6.34,6.34,0,0,1,5,2.16,8.34,8.34,0,0,1,1.91,5.72v.36a9.27,9.27,0,0,1-.86,4,6.55,6.55,0,0,1-2.43,2.76,6.65,6.65,0,0,1-3.58,1,6.34,6.34,0,0,1-5-2.16,8.3,8.3,0,0,1-1.92-5.72v-.35Zm1.71.48a7,7,0,0,0,1.43,4.54,4.86,4.86,0,0,0,7.5,0,7.24,7.24,0,0,0,1.43-4.68v-.33a7.82,7.82,0,0,0-.66-3.24,5.22,5.22,0,0,0-1.84-2.27,4.68,4.68,0,0,0-2.71-.81,4.57,4.57,0,0,0-3.72,1.79,7.24,7.24,0,0,0-1.44,4.68v.32Z"
          style="fill:#872657"/>
    <path d="M385.6,116.29l.06,2.64a6,6,0,0,1,2.17-2.17,5.61,5.61,0,0,1,2.87-.75,4.62,4.62,0,0,1,3.69,1.4,6.29,6.29,0,0,1,1.23,4.19v10.12h-1.7V121.58a4.69,4.69,0,0,0-.88-3.08,3.45,3.45,0,0,0-2.76-1,4.3,4.3,0,0,0-2.8,1,5.82,5.82,0,0,0-1.8,2.67v10.57H384V116.29Z"
          style="fill:#872657"/>
    <path d="M401.64,116.29l.06,2.64a6,6,0,0,1,2.17-2.17,5.64,5.64,0,0,1,2.87-.75,4.62,4.62,0,0,1,3.69,1.4,6.29,6.29,0,0,1,1.23,4.19v10.12H410V121.58a4.69,4.69,0,0,0-.88-3.08,3.44,3.44,0,0,0-2.76-1,4.3,4.3,0,0,0-2.8,1,5.82,5.82,0,0,0-1.8,2.67v10.57H400V116.29Z"
          style="fill:#872657"/>
    <path d="M422,132a6.6,6.6,0,0,1-6-3.67,8.41,8.41,0,0,1-.89-3.89v-.61a9.18,9.18,0,0,1,.86-4,6.93,6.93,0,0,1,2.4-2.8,5.94,5.94,0,0,1,3.34-1,5.58,5.58,0,0,1,4.46,1.92,7.78,7.78,0,0,1,1.65,5.24v1h-11v.33a6.46,6.46,0,0,0,1.5,4.37,4.76,4.76,0,0,0,3.79,1.75,5.63,5.63,0,0,0,2.42-.5,5.24,5.24,0,0,0,1.9-1.6l1.07.81A6.22,6.22,0,0,1,422,132Zm-.31-14.54a4.29,4.29,0,0,0-3.25,1.41,6.52,6.52,0,0,0-1.6,3.79h9.26v-.19a5.67,5.67,0,0,0-1.27-3.62,3.94,3.94,0,0,0-3.14-1.39Z"
          style="fill:#872657"/>
    <path d="M436.85,130.56a4.53,4.53,0,0,0,3-1,3.52,3.52,0,0,0,1.3-2.6h1.64a4.84,4.84,0,0,1-.88,2.57,5.58,5.58,0,0,1-2.16,1.82,6.48,6.48,0,0,1-2.89.66,6,6,0,0,1-4.81-2.11,8.53,8.53,0,0,1-1.77-5.67v-.52a9.66,9.66,0,0,1,.8-4,6.11,6.11,0,0,1,2.29-2.71,6.3,6.3,0,0,1,3.49-1,5.92,5.92,0,0,1,4.18,1.51,5.52,5.52,0,0,1,1.76,4h-1.64a4.12,4.12,0,0,0-4.3-4,4.27,4.27,0,0,0-3.59,1.67,7.55,7.55,0,0,0-1.28,4.68v.5a7.35,7.35,0,0,0,1.28,4.61,4.27,4.27,0,0,0,3.59,1.64Z"
          style="fill:#872657"/>
    <path d="M448.84,112.34v4H452v1.4h-3.2V128a3.2,3.2,0,0,0,.47,1.91,1.79,1.79,0,0,0,1.55.63,11.21,11.21,0,0,0,1.38-.14l.07,1.39a5.56,5.56,0,0,1-1.82.24,3,3,0,0,1-2.55-1,4.81,4.81,0,0,1-.8-3v-10.3H444.3v-1.4h2.84v-4Z"
          style="fill:#872657"/>
    <path d="M455.47,111.83a1.17,1.17,0,0,1,.32-.82,1.11,1.11,0,0,1,.85-.33,1.15,1.15,0,1,1,0,2.29,1.11,1.11,0,0,1-1.17-1.14Zm2,19.89h-1.71V116.29h1.71v15.43Z"
          style="fill:#872657"/>
    <path d="M463.74,116.29l.06,2.64a6,6,0,0,1,2.17-2.17,5.61,5.61,0,0,1,2.87-.75,4.62,4.62,0,0,1,3.69,1.4,6.29,6.29,0,0,1,1.23,4.19v10.12h-1.7V121.58a4.69,4.69,0,0,0-.88-3.08,3.45,3.45,0,0,0-2.76-1,4.3,4.3,0,0,0-2.8,1,5.82,5.82,0,0,0-1.8,2.67v10.57h-1.7V116.29Z"
          style="fill:#872657"/>
    <path d="M477.47,123.86a9.27,9.27,0,0,1,1.6-5.74,5.18,5.18,0,0,1,4.36-2.12,5.37,5.37,0,0,1,4.79,2.51l.09-2.22h1.6V131.4a6.54,6.54,0,0,1-1.67,4.72,6,6,0,0,1-4.52,1.74,6.82,6.82,0,0,1-3.07-.72,6,6,0,0,1-2.3-1.92l.95-1a5.42,5.42,0,0,0,4.31,2.23,4.39,4.39,0,0,0,3.34-1.26,5,5,0,0,0,1.24-3.5v-1.94a5.52,5.52,0,0,1-4.78,2.28,5.15,5.15,0,0,1-4.31-2.14,9.34,9.34,0,0,1-1.62-5.77v-.23Zm1.72.3a8.13,8.13,0,0,0,1.18,4.66,3.82,3.82,0,0,0,3.34,1.7,4.55,4.55,0,0,0,4.46-2.82v-7.17a4.82,4.82,0,0,0-1.73-2.26,4.63,4.63,0,0,0-2.71-.78,3.87,3.87,0,0,0-3.35,1.69,8.63,8.63,0,0,0-1.19,5Z"
          style="fill:#872657"/>
    <path d="M501.85,131.72V111h5.8a9.09,9.09,0,0,1,4.58,1.16,8,8,0,0,1,3.16,3.33,10.45,10.45,0,0,1,1.13,4.93v1.91a10.48,10.48,0,0,1-1.13,4.93,8.06,8.06,0,0,1-3.17,3.32,9.29,9.29,0,0,1-4.7,1.17h-5.67Zm1.76-19.28v17.79h3.93a6.73,6.73,0,0,0,5.26-2.18,8.41,8.41,0,0,0,2-5.89v-1.83a8.23,8.23,0,0,0-1.95-5.74,6.65,6.65,0,0,0-5.15-2.17h-4.07Z"
          style="fill:#872657"/>
    <path d="M520.47,111.83a1.13,1.13,0,0,1,.32-.82,1.11,1.11,0,0,1,.85-.33,1.14,1.14,0,0,1,.86.33,1.1,1.1,0,0,1,.32.82,1.11,1.11,0,0,1-1.18,1.14,1.1,1.1,0,0,1-.85-.33,1.13,1.13,0,0,1-.32-.81Zm2,19.89h-1.71V116.29h1.71v15.43Z"
          style="fill:#872657"/>
    <path d="M526.43,123.86a9.27,9.27,0,0,1,1.6-5.74,5.18,5.18,0,0,1,4.36-2.12,5.37,5.37,0,0,1,4.79,2.51l.09-2.22h1.6V131.4a6.54,6.54,0,0,1-1.67,4.72,6,6,0,0,1-4.52,1.74,6.85,6.85,0,0,1-3.07-.72,6,6,0,0,1-2.3-1.92l1-1a5.42,5.42,0,0,0,4.31,2.23,4.39,4.39,0,0,0,3.34-1.26,5,5,0,0,0,1.24-3.5v-1.94a5.52,5.52,0,0,1-4.78,2.28,5.15,5.15,0,0,1-4.31-2.14,9.34,9.34,0,0,1-1.63-5.77v-.23Zm1.73.3a8.06,8.06,0,0,0,1.18,4.66,3.82,3.82,0,0,0,3.34,1.7,4.55,4.55,0,0,0,4.46-2.82v-7.17a4.89,4.89,0,0,0-1.73-2.26,4.63,4.63,0,0,0-2.71-.78,3.86,3.86,0,0,0-3.35,1.69,8.63,8.63,0,0,0-1.19,5Z"
          style="fill:#872657"/>
    <path d="M543.22,111.83a1.21,1.21,0,0,1,.31-.82,1.11,1.11,0,0,1,.85-.33,1.15,1.15,0,1,1,0,2.29,1.1,1.1,0,0,1-.85-.33,1.12,1.12,0,0,1-.31-.81Zm2,19.89h-1.71V116.29h1.71v15.43Z"
          style="fill:#872657"/>
    <path d="M552.51,112.34v4h3.2v1.4h-3.2V128a3.2,3.2,0,0,0,.47,1.91,1.79,1.79,0,0,0,1.55.63,11.21,11.21,0,0,0,1.38-.14l.07,1.39a5.56,5.56,0,0,1-1.82.24,3,3,0,0,1-2.55-1,4.81,4.81,0,0,1-.8-3v-10.3H548v-1.4h2.84v-4Z"
          style="fill:#872657"/>
    <path d="M569,131.72a8.15,8.15,0,0,1-.33-2.15,5.9,5.9,0,0,1-2.29,1.8,7.08,7.08,0,0,1-3,.64,5.17,5.17,0,0,1-3.6-1.24,4,4,0,0,1-1.38-3.14,4.12,4.12,0,0,1,1.88-3.56,9,9,0,0,1,5.23-1.31h3.09V121a3.37,3.37,0,0,0-1-2.6,4.22,4.22,0,0,0-3-1,4.63,4.63,0,0,0-2.95.91,2.71,2.71,0,0,0-1.17,2.2h-1.71a4,4,0,0,1,1.71-3.19,6.58,6.58,0,0,1,4.21-1.35,6,6,0,0,1,4.07,1.29,4.64,4.64,0,0,1,1.53,3.6v7.3a9.13,9.13,0,0,0,.47,3.35v.17H569Zm-5.36-1.23a5.75,5.75,0,0,0,3.06-.83,4.87,4.87,0,0,0,2-2.21v-3.39h-3a7.69,7.69,0,0,0-4,.93,2.8,2.8,0,0,0-1.44,2.49,2.76,2.76,0,0,0,1,2.15,3.59,3.59,0,0,0,2.5.86Z"
          style="fill:#872657"/>
    <polygon points="576.8 131.72 575.09 131.72 575.09 109.81 576.8 109.81 576.8 131.72" style="fill:#872657"/>
    <polygon
            points="604.32 131.72 602.55 131.72 602.55 121.76 590.69 121.76 590.69 131.72 588.93 131.72 588.93 110.96 590.69 110.96 590.69 120.28 602.55 120.28 602.55 110.96 604.32 110.96 604.32 131.72"
            style="fill:#872657"/>
    <path d="M615.17,132a6.6,6.6,0,0,1-6-3.67,8.41,8.41,0,0,1-.89-3.89v-.61a9.18,9.18,0,0,1,.86-4,6.93,6.93,0,0,1,2.4-2.8,5.94,5.94,0,0,1,3.34-1,5.58,5.58,0,0,1,4.46,1.92,7.78,7.78,0,0,1,1.65,5.24v1H610v.33a6.46,6.46,0,0,0,1.5,4.37,4.76,4.76,0,0,0,3.79,1.75,5.63,5.63,0,0,0,2.42-.5,5.24,5.24,0,0,0,1.9-1.6l1.07.81a6.25,6.25,0,0,1-5.46,2.72Zm-.32-14.54a4.25,4.25,0,0,0-3.24,1.41,6.52,6.52,0,0,0-1.6,3.79h9.25v-.19a5.67,5.67,0,0,0-1.27-3.62,3.93,3.93,0,0,0-3.14-1.39Z"
          style="fill:#872657"/>
    <path d="M634,131.72a8.15,8.15,0,0,1-.33-2.15,5.9,5.9,0,0,1-2.29,1.8,7.08,7.08,0,0,1-2.95.64,5.17,5.17,0,0,1-3.6-1.24,4,4,0,0,1-1.38-3.14,4.12,4.12,0,0,1,1.88-3.56,9,9,0,0,1,5.23-1.31h3.09V121a3.37,3.37,0,0,0-1-2.6,4.22,4.22,0,0,0-3-1,4.63,4.63,0,0,0-2.95.91,2.71,2.71,0,0,0-1.17,2.2h-1.71a4,4,0,0,1,1.71-3.19,6.58,6.58,0,0,1,4.21-1.35,6,6,0,0,1,4.07,1.29,4.64,4.64,0,0,1,1.53,3.6v7.3a9.13,9.13,0,0,0,.47,3.35v.17H634Zm-5.36-1.23a5.75,5.75,0,0,0,3.06-.83,4.87,4.87,0,0,0,2-2.21v-3.39h-3a7.69,7.69,0,0,0-4,.93,2.8,2.8,0,0,0-1.44,2.49,2.76,2.76,0,0,0,1,2.15,3.55,3.55,0,0,0,2.5.86Z"
          style="fill:#872657"/>
    <polygon points="641.83 131.72 640.12 131.72 640.12 109.81 641.83 109.81 641.83 131.72" style="fill:#872657"/>
    <path d="M649.12,112.34v4h3.2v1.4h-3.2V128a3.2,3.2,0,0,0,.47,1.91,1.79,1.79,0,0,0,1.55.63,11.21,11.21,0,0,0,1.38-.14l.07,1.39a5.52,5.52,0,0,1-1.82.24,3,3,0,0,1-2.55-1,4.81,4.81,0,0,1-.8-3v-10.3h-2.84v-1.4h2.84v-4Z"
          style="fill:#872657"/>
    <path d="M657.54,118.9a6,6,0,0,1,2.15-2.14,5.7,5.7,0,0,1,2.87-.76,4.64,4.64,0,0,1,3.69,1.4,6.29,6.29,0,0,1,1.23,4.19v10.12h-1.7V121.57a4.69,4.69,0,0,0-.88-3.08,3.45,3.45,0,0,0-2.76-1,4.3,4.3,0,0,0-2.8,1,5.82,5.82,0,0,0-1.8,2.67v10.57h-1.7v-21.9h1.7v9.09Z"
          style="fill:#872657"/>
    <path d="M66.28,35.2A39.14,39.14,0,0,0,61.4,15C54.61,2.66,40.94,2.14,33.14,2,25.92,1.79,6.29,2,1.66,2A1.55,1.55,0,0,0,.12,3.5S0,67.38,0,88.57a1.55,1.55,0,0,0,1.53,1.54c1.92,0,27.45.12,32,0,12.56-.33,20.79-3.38,26.8-11.47,5.33-7.19,5.92-16.66,5.92-23.16V35.2ZM50.48,53c0,6.52-.14,12.76-4.13,17.53S35.5,75.7,30,75.7H15.83V16.35H29.39c5.11,0,13.11-.19,17.91,6.56,1.5,2.12,3.16,4.46,3.16,13.57,0,5,0,16.47,0,16.47Z"
          style="fill:#872657"/>
    <path d="M93.7,90.1V16.28h33.1c4,0,14.56-.21,19.08,3.92s4.41,13.35,4.41,19.36V90.1H166.1s0-48.95,0-52.26c0-6.78,0-19-6.95-26.88C150.09.78,134.87,1.89,126,1.89H80A2.16,2.16,0,0,0,77.88,4V90.1Z"
          style="fill:#872657"/>
    <path d="M239.9,16.28H193.72V52.33c0,4-.21,14.56,3.92,19.08S211,75.65,217,75.82s22.87,0,22.87,0v14.3s-22.63,0-26,0c-6.95-.16-19,0-26.88-7C176.86,74.11,178,58.89,178,50V4.05a2.16,2.16,0,0,1,2.15-2.15h59.77V16.28Z"
          style="fill:#872657"/>
    <path d="M317.47,23.9c0-6.34-.63-11-3.66-15.06s-7.54-6.92-15-6.92l-14.14,0-14.14,0c-7.49,0-12.1,3-15,6.92s-3.66,8.72-3.66,15.06l-.62,66.2H267l.26-30.94H302l.26,30.94h15.78l-.6-66.2ZM267.4,44.56l.18-20c0-2.2-.14-5.09,1.14-6.64,1.1-1.32,2.46-1.52,4.6-1.64,2.89-.16,7.17-.14,11.4-.16s8.29,0,11.21.16c2.14.11,3.5.32,4.6,1.64,1.29,1.54,1.14,4.44,1.14,6.64l.18,20Z"
          style="fill:#872657"/>
    <path d="M208.26,37.39V48A3.76,3.76,0,0,0,212,51.76l25.16,0V37.39Z" style="fill:#872657"/>
    <path d="M129.56,35.82a3.75,3.75,0,0,0-3.74-3.74H114.43v58h15.13V35.82Z" style="fill:#872657"/>
    <path d="M368.37,87.72H352.46l8.45-9.55a34.34,34.34,0,0,0,4.65-6.28,10.09,10.09,0,0,0,1.32-4.64,7.75,7.75,0,0,0-2.34-6,9.14,9.14,0,0,0-6.5-2.18,9.73,9.73,0,0,0-4.86,1.2,8.35,8.35,0,0,0-3.29,3.3,9.5,9.5,0,0,0-1.15,4.66h2.48a7.05,7.05,0,0,1,1.88-5.08,6.57,6.57,0,0,1,4.94-2,6.33,6.33,0,0,1,4.64,1.67,6.14,6.14,0,0,1,1.69,4.55,8.09,8.09,0,0,1-1,3.76,27.35,27.35,0,0,1-3.58,4.91L349.41,87.9v1.91h19V87.72Zm16.22-28.29h-.42l-10.32,3.83v2.33l8.24-3.06V89.82h2.5V59.43ZM393,89.52a1.75,1.75,0,0,0,1.3.47,1.81,1.81,0,0,0,1.31-.47,1.6,1.6,0,0,0,.48-1.2,1.75,1.75,0,0,0-.48-1.24,1.72,1.72,0,0,0-1.31-.51,1.68,1.68,0,0,0-1.3.51,1.77,1.77,0,0,0-.47,1.24,1.64,1.64,0,0,0,.47,1.2Zm30.83-16.09H403v2.12h20.84V73.43Zm25.42,14.29H433.33l8.44-9.55a34.34,34.34,0,0,0,4.65-6.28,10.09,10.09,0,0,0,1.32-4.64,7.75,7.75,0,0,0-2.34-6,9.14,9.14,0,0,0-6.5-2.18,9.76,9.76,0,0,0-4.86,1.2,8.35,8.35,0,0,0-3.29,3.3,9.5,9.5,0,0,0-1.15,4.66h2.48A7.05,7.05,0,0,1,434,63.2a6.57,6.57,0,0,1,4.94-2,6.31,6.31,0,0,1,4.64,1.67,6.14,6.14,0,0,1,1.68,4.55,8.09,8.09,0,0,1-1,3.76,26.86,26.86,0,0,1-3.58,4.91L430.26,87.9v1.91h19V87.72Zm10.17-12.28h2.5a8.84,8.84,0,0,1,5.73,1.6,5.65,5.65,0,0,1,1.94,4.64,6.18,6.18,0,0,1-1.8,4.79,7.15,7.15,0,0,1-5,1.65,7.46,7.46,0,0,1-5.18-1.82,6,6,0,0,1-2-4.71h-2.5a8.17,8.17,0,0,0,1.24,4.52,8.28,8.28,0,0,0,3.49,3,11.33,11.33,0,0,0,5,1.08,9.53,9.53,0,0,0,6.78-2.37,8.18,8.18,0,0,0,2.54-6.26A7.4,7.4,0,0,0,470.61,77a7.76,7.76,0,0,0-4.29-2.71,8.32,8.32,0,0,0,3.8-2.76,6.57,6.57,0,0,0,1.38-4,8.08,8.08,0,0,0-2.37-6.16,9,9,0,0,0-6.49-2.25A10.14,10.14,0,0,0,458,60.16a8,8,0,0,0-3.29,3,8.12,8.12,0,0,0-1.19,4.3H456A5.85,5.85,0,0,1,457.86,63a6.78,6.78,0,0,1,4.77-1.72,6.4,6.4,0,0,1,4.72,1.64A6.18,6.18,0,0,1,469,67.43a5.57,5.57,0,0,1-.84,3,5.76,5.76,0,0,1-2.44,2.08,8.61,8.61,0,0,1-3.74.76h-2.58v2.12Zm18.71,14.08a1.75,1.75,0,0,0,1.3.47,1.79,1.79,0,0,0,1.31-.47,1.6,1.6,0,0,0,.48-1.2,1.75,1.75,0,0,0-.48-1.24,1.72,1.72,0,0,0-1.31-.51,1.68,1.68,0,0,0-1.3.51,1.77,1.77,0,0,0-.47,1.24,1.68,1.68,0,0,0,.47,1.2Zm40.37.3h2.66L509.69,59.53h-2.43L495.8,89.82h2.68l3.12-8.51h13.75l3.14,8.51Zm-10-27.17,6.07,16.49H502.38l6.08-16.49Zm34.66,15.79q0-5.43-2.3-8.49a7.47,7.47,0,0,0-6.33-3.06,8,8,0,0,0-7,3.6l-.12-3.18H525V98.47h2.47V87a8.34,8.34,0,0,0,7.07,3.25,7.41,7.41,0,0,0,6.24-3.09q2.33-3.09,2.33-8.35v-.36Zm-4.26,7.19a5.65,5.65,0,0,1-4.9,2.51,7.37,7.37,0,0,1-3.93-1,6.62,6.62,0,0,1-2.56-3V73.37a6.57,6.57,0,0,1,6.45-4.3,5.69,5.69,0,0,1,4.93,2.5,11.55,11.55,0,0,1,1.77,6.8c0,3.16-.59,5.59-1.76,7.26Zm20.23-18.46a4.09,4.09,0,0,0-1.64-.27,6.61,6.61,0,0,0-6.34,4l0-3.58h-2.43V89.82h2.48V74.37a7.13,7.13,0,0,1,2.3-3.78,6.07,6.07,0,0,1,3.94-1.3,8.9,8.9,0,0,1,1.68.15l.05-2.27Zm6.66.14h-2.5V89.82h2.5V67.31ZM563.27,62a1.65,1.65,0,0,0,1.25.48,1.67,1.67,0,0,0,1.26-.48,1.63,1.63,0,0,0,.47-1.18,1.64,1.64,0,0,0-1.73-1.68,1.62,1.62,0,0,0-1.25.49,1.69,1.69,0,0,0-.46,1.19,1.66,1.66,0,0,0,.46,1.18Zm12-4.12h-2.5V89.82h2.5V57.87ZM611,87.72H595.08l8.45-9.55a34.34,34.34,0,0,0,4.65-6.28,10.09,10.09,0,0,0,1.32-4.64,7.75,7.75,0,0,0-2.34-6,9.14,9.14,0,0,0-6.5-2.18,9.73,9.73,0,0,0-4.86,1.2,8.35,8.35,0,0,0-3.29,3.3,9.5,9.5,0,0,0-1.15,4.66h2.47a7.05,7.05,0,0,1,1.88-5.08,6.57,6.57,0,0,1,4.94-2,6.31,6.31,0,0,1,4.64,1.67A6.14,6.14,0,0,1,607,67.46a8.09,8.09,0,0,1-1,3.76,27.35,27.35,0,0,1-3.58,4.91L592,87.9v1.91h19V87.72Zm22.9-16.08c-.06-4.12-.87-7.24-2.46-9.35a9,9,0,0,0-13.79.12q-2.37,3.28-2.37,9.67v5.43q.06,6.22,2.46,9.48a8.9,8.9,0,0,0,13.82-.06q2.36-3.32,2.35-9.72V71.64Zm-2.49,6q0,5.18-1.74,7.86a5.6,5.6,0,0,1-5,2.68,5.71,5.71,0,0,1-5.11-2.74q-1.75-2.74-1.76-7.93V71.51q0-5.07,1.75-7.68a6.26,6.26,0,0,1,10.2.06q1.69,2.67,1.7,7.86v5.84Zm26.81,10.13H642.3l8.45-9.55a34.34,34.34,0,0,0,4.65-6.28,10.09,10.09,0,0,0,1.32-4.64,7.75,7.75,0,0,0-2.34-6,9.14,9.14,0,0,0-6.5-2.18,9.73,9.73,0,0,0-4.86,1.2,8.35,8.35,0,0,0-3.29,3.3,9.5,9.5,0,0,0-1.15,4.66h2.48a7.05,7.05,0,0,1,1.88-5.08,6.57,6.57,0,0,1,4.94-2,6.31,6.31,0,0,1,4.64,1.67,6.14,6.14,0,0,1,1.68,4.55,8.09,8.09,0,0,1-1,3.76,27.35,27.35,0,0,1-3.58,4.91L639.24,87.9v1.91h19V87.72Zm22.9-16.08q-.08-6.18-2.45-9.35a9,9,0,0,0-13.79.12q-2.37,3.28-2.37,9.67v5.43q.06,6.22,2.45,9.48a8.9,8.9,0,0,0,13.82-.06q2.36-3.32,2.35-9.72V71.64Zm-2.5,6q0,5.18-1.74,7.86a5.6,5.6,0,0,1-5,2.68,5.71,5.71,0,0,1-5.11-2.74Q665,82.65,665,77.46V71.51q0-5.07,1.75-7.68a6.27,6.27,0,0,1,10.21.06q1.7,2.67,1.69,7.86v5.84Z"
          style="fill:#872657"/>
</svg>
